<?xml version="1.0" standalone="no"?>
<!DOCTYPE svg PUBLIC "-//W3C//DTD SVG 20010904//EN"
 "http://www.w3.org/TR/2001/REC-SVG-20010904/DTD/svg10.dtd">
<svg version="1.0" xmlns="http://www.w3.org/2000/svg"
 width="727.000000pt" height="727.000000pt" viewBox="0 0 727.000000 727.000000"
 preserveAspectRatio="xMidYMid meet">

<g transform="translate(0.000000,727.000000) scale(0.100000,-0.100000)"
fill="##ca1515" stroke="none">
<path d="M2070 5448 l0 -1003 34 80 c37 90 80 177 125 254 l31 52 0 709 c0
561 3 710 13 711 6 0 574 0 1261 -1 1200 -1 1251 -2 1310 -21 80 -24 169 -82
225 -145 52 -58 107 -168 121 -243 6 -32 10 -253 10 -539 l0 -485 60 -121 c33
-67 75 -164 94 -216 l35 -95 0 730 c1 805 2 790 -63 928 -86 187 -247 323
-451 384 -56 17 -148 18 -1432 21 l-1373 2 0 -1002z"/>
<path d="M2665 5899 c-75 -12 -121 -35 -175 -85 -71 -67 -95 -127 -95 -244 0
-105 14 -144 76 -215 59 -67 59 -67 150 47 114 141 220 247 307 302 l72 47
-26 34 c-28 37 -103 89 -150 104 -48 15 -106 19 -159 10z"/>
<path d="M3320 5681 c-8 -5 -18 -7 -22 -5 -5 3 -41 -11 -81 -30 -78 -39 -158
-113 -277 -256 -117 -141 -184 -329 -184 -515 0 -86 4 -108 26 -155 64 -142
171 -199 314 -170 94 19 189 75 276 163 43 42 78 81 78 85 0 4 -29 6 -65 4
-83 -5 -141 15 -188 67 -45 49 -60 99 -55 172 11 151 184 246 319 176 47 -25
103 -97 117 -150 8 -29 9 -27 30 44 12 41 26 104 31 140 11 79 5 213 -9 217
-6 2 -8 8 -5 13 15 24 -103 177 -127 163 -4 -3 -8 -1 -8 3 0 23 -144 51 -170
34z"/>
<path d="M3941 5627 c-1 -10 -8 -20 -16 -23 -11 -5 -13 -10 -5 -19 8 -9 8 -14
-1 -17 -6 -2 2 -9 17 -16 27 -11 27 -11 10 3 -12 9 -15 15 -7 15 10 0 11 3 2
13 -7 10 -7 17 0 24 6 6 9 17 6 25 -4 9 -6 7 -6 -5z"/>
<path d="M3885 5580 c-3 -5 -1 -10 4 -10 6 0 11 5 11 10 0 6 -2 10 -4 10 -3 0
-8 -4 -11 -10z"/>
<path d="M3872 5548 c-7 -7 -12 -17 -12 -22 0 -6 5 -4 10 4 6 9 10 10 10 3 0
-6 -9 -18 -20 -26 -11 -8 -17 -17 -14 -20 4 -4 2 -13 -5 -20 -6 -8 -9 -21 -5
-30 3 -8 1 -18 -5 -22 -6 -3 -11 -18 -11 -33 0 -21 2 -24 10 -12 6 9 10 10 10
3 0 -6 -4 -15 -10 -18 -11 -7 -14 -98 -3 -108 3 -4 8 -26 9 -50 2 -23 14 -71
27 -107 l25 -64 8 34 c5 19 9 40 9 45 0 6 6 16 13 23 15 17 16 36 0 26 -7 -4
-8 -3 -4 4 4 6 13 9 20 6 19 -7 30 14 16 31 -8 10 -8 15 1 21 7 4 9 3 5 -4 -3
-6 -2 -13 4 -17 11 -7 42 19 33 28 -3 4 4 5 15 2 11 -2 23 3 26 11 3 7 12 11
21 8 8 -3 15 -2 15 4 0 6 -6 13 -12 15 -7 3 5 3 27 1 l40 -4 -30 14 c-20 10
-24 15 -12 16 10 0 17 8 17 19 0 21 -25 45 -38 37 -5 -3 -7 6 -4 19 2 15 0 25
-7 25 -6 0 -11 8 -11 19 0 10 -9 21 -20 24 -11 3 -20 12 -20 21 0 9 -8 16 -20
16 -14 0 -20 6 -18 18 2 12 -3 17 -19 16 -12 0 -21 2 -19 5 2 3 0 16 -5 29 -9
24 -28 29 -47 10z m-10 -140 c-7 -7 -12 -8 -12 -2 0 14 12 26 19 19 2 -3 -1
-11 -7 -17z"/>
<path d="M4110 5295 c0 -9 9 -15 21 -15 14 0 19 -5 16 -14 -4 -9 4 -13 25 -14
28 -1 29 0 12 14 -17 12 -17 13 -1 8 20 -7 24 11 4 19 -7 3 -26 3 -43 1 -24
-4 -26 -3 -9 5 19 9 19 10 -2 10 -14 1 -23 -5 -23 -14z"/>
<path d="M4246 5222 c-3 -5 1 -12 9 -16 15 -5 31 11 21 21 -3 4 -6 0 -6 -8 0
-12 -2 -12 -9 0 -5 8 -11 9 -15 3z"/>
<path d="M4290 5224 c0 -9 62 -65 67 -60 3 3 1 6 -5 6 -7 0 -12 8 -12 18 0 14
2 15 10 2 5 -8 10 -10 10 -5 0 22 -20 40 -45 40 -14 1 -25 0 -25 -1z m50 -14
c0 -5 -4 -10 -10 -10 -5 0 -10 5 -10 10 0 6 5 10 10 10 6 0 10 -4 10 -10z"/>
<path d="M3297 5186 c-21 -8 -48 -22 -59 -33 -57 -52 -76 -159 -38 -221 l21
-33 18 22 c35 44 98 -1 71 -51 -14 -27 4 -34 71 -28 112 11 188 130 149 234
l-10 26 -27 -26 c-34 -34 -68 -33 -104 3 -34 35 -36 50 -9 83 10 14 16 28 13
32 -10 10 -55 6 -96 -8z"/>
<path d="M4110 5186 c0 -16 -3 -17 -12 -8 -14 14 -42 16 -33 3 3 -5 1 -12 -5
-16 -5 -3 -10 0 -10 7 0 11 -2 11 -9 0 -4 -7 -13 -12 -20 -10 -7 2 -27 -14
-44 -35 -38 -46 -49 -134 -23 -185 16 -31 16 -31 45 -14 23 13 34 14 54 5 26
-12 26 -14 14 -76 -1 -7 19 -12 47 -13 36 -2 58 3 78 17 15 11 28 17 28 13 0
-3 7 -1 15 6 8 7 15 21 15 31 0 11 3 18 8 17 4 -2 9 2 10 7 2 6 9 16 15 24 10
12 9 13 -6 8 -13 -5 -17 -3 -14 5 2 7 10 12 16 11 19 -5 17 50 -3 79 -12 17
-15 17 -41 -9 -16 -16 -25 -22 -21 -15 4 7 1 12 -9 12 -10 0 -13 -5 -9 -12 4
-7 -6 -2 -23 10 -18 12 -34 17 -39 12 -12 -12 -12 100 0 118 4 7 5 16 2 19 -3
4 -6 0 -6 -8 0 -11 -2 -11 -10 1 -8 13 -10 12 -10 -4z m155 -145 c-3 -6 -11
-11 -16 -11 -5 0 -4 6 3 14 14 16 24 13 13 -3z m19 -19 c2 -4 -5 -9 -17 -9
-17 -2 -19 0 -7 7 18 12 18 12 24 2z m-74 -12 c4 0 10 -10 13 -22 5 -20 4 -21
-6 -7 -7 8 -21 21 -32 28 -17 11 -17 12 -2 7 10 -3 22 -6 27 -6z"/>
<path d="M4290 5186 c0 -10 5 -14 10 -11 6 3 10 -3 10 -14 0 -24 16 -36 26
-20 4 8 3 9 -4 5 -8 -5 -12 0 -12 12 0 11 -7 25 -15 32 -12 10 -15 9 -15 -4z"/>
<path d="M4330 5120 c-9 -6 -10 -10 -3 -10 6 0 15 5 18 10 8 12 4 12 -15 0z"/>
<path d="M4335 5089 c-6 -8 -4 -10 5 -4 10 6 12 4 6 -11 -6 -15 -5 -17 5 -6 9
9 10 15 2 23 -8 8 -13 7 -18 -2z"/>
<path d="M4348 5034 c-3 -11 -1 -29 4 -41 5 -17 4 -23 -7 -23 -8 0 -12 -6 -9
-14 3 -8 1 -17 -5 -21 -16 -9 -13 -25 3 -19 7 3 16 -2 20 -12 5 -14 4 -15 -8
-5 -11 9 -22 3 -57 -28 -24 -22 -48 -41 -52 -41 -5 0 -6 -4 -3 -8 2 -4 -3 -8
-12 -9 -9 -1 -35 -6 -57 -10 -39 -9 -111 -2 -150 13 -11 4 20 -33 70 -84 51
-52 96 -90 103 -87 7 3 11 1 8 -4 -3 -5 5 -16 19 -25 14 -9 25 -14 25 -11 0 3
9 -3 21 -14 19 -17 70 -34 109 -36 8 0 20 -3 25 -6 21 -11 75 -10 75 1 0 6 5
8 10 5 6 -4 24 -4 40 0 22 5 27 10 23 23 -6 15 -5 16 12 2 11 -9 16 -10 11 -2
-4 7 -1 12 8 12 23 0 86 67 80 85 -4 8 -2 15 4 15 5 0 13 7 16 16 4 9 2 13 -5
8 -8 -4 -9 1 -4 17 4 17 3 20 -3 10 -8 -11 -10 -11 -14 0 -4 11 -8 11 -19 2
-11 -9 -19 -8 -33 3 -11 8 -14 14 -7 14 7 0 11 6 8 13 -2 6 -9 11 -16 10 -6
-2 -13 8 -17 22 -4 16 -13 25 -26 25 -12 0 -18 6 -16 18 2 12 -3 17 -19 16
-12 0 -20 2 -18 5 6 10 -23 71 -35 71 -5 0 -10 5 -10 11 0 12 -17 29 -45 45
-11 6 -25 21 -32 34 -10 20 -11 21 -15 4z m-44 -172 c3 -5 -1 -9 -9 -9 -8 0
-12 4 -9 9 3 4 7 8 9 8 2 0 6 -4 9 -8z m340 -173 c1 -17 -5 -34 -11 -36 -7 -3
-10 -9 -7 -14 3 -5 0 -9 -5 -9 -6 0 -11 3 -12 8 -5 68 -5 80 3 76 4 -3 8 -16
8 -30 0 -13 4 -24 8 -24 4 0 6 17 4 38 -3 20 -1 34 3 30 5 -5 9 -22 9 -39z"/>
<path d="M3685 4900 c-45 -10 -68 -25 -109 -71 -46 -50 -75 -113 -83 -177 -4
-41 -2 -52 19 -76 19 -22 35 -29 85 -35 35 -4 65 -10 68 -13 3 -3 -12 -23 -34
-46 -34 -35 -47 -41 -95 -47 -69 -9 -102 3 -168 62 -51 45 -66 51 -86 31 -21
-21 -13 -44 26 -83 52 -52 107 -77 178 -83 87 -7 121 2 182 48 l53 41 39 -31
c56 -44 101 -60 172 -59 74 1 111 13 170 55 53 37 77 78 61 102 -16 25 -53 16
-93 -22 -56 -54 -95 -69 -159 -63 -47 5 -60 12 -94 45 -22 22 -37 44 -34 49 4
6 32 13 64 16 47 5 63 11 82 33 19 23 22 35 18 73 -8 64 -39 132 -83 181 -56
62 -115 85 -179 70z"/>
<path d="M2292 4567 c-72 -153 -109 -257 -142 -407 -127 -579 37 -1194 432
-1622 139 -150 322 -238 448 -216 119 22 212 149 196 267 -8 62 -41 127 -134
269 -94 142 -136 242 -157 374 -16 98 -19 283 -9 436 l7 92 757 0 c744 0 758
0 783 -20 41 -33 50 -79 50 -265 0 -269 -36 -398 -169 -611 -96 -152 -126
-224 -132 -308 -4 -60 -1 -79 17 -113 37 -74 128 -123 227 -123 275 0 648 438
788 926 19 67 37 139 39 160 3 22 10 67 17 102 13 75 16 315 3 357 -5 17 -8
41 -7 55 1 14 -3 28 -10 32 -8 6 -8 8 1 8 9 0 7 10 -6 31 -10 17 -17 40 -15
52 4 21 4 21 -5 0 -13 -29 -35 -31 -26 -3 5 15 0 22 -19 30 -14 5 -26 16 -26
25 0 9 -9 15 -21 15 -15 0 -19 5 -15 15 4 11 -3 19 -19 25 -14 5 -25 16 -25
23 0 8 -9 22 -20 32 -11 10 -20 22 -20 27 0 12 -26 38 -38 38 -19 0 -44 40
-39 60 3 14 0 23 -10 27 -12 5 -12 7 -1 14 7 5 9 9 3 9 -5 0 -17 -5 -25 -10
-8 -5 -10 -10 -4 -10 7 0 15 -12 19 -27 4 -19 1 -32 -14 -47 -13 -12 -21 -15
-21 -8 0 7 7 15 15 18 8 4 15 10 15 16 0 5 -13 1 -29 -8 -17 -10 -28 -20 -26
-24 2 -3 -5 -6 -16 -6 -18 0 -18 2 -5 12 9 6 13 13 10 16 -3 4 2 5 11 4 25 -2
43 30 27 46 -11 11 -12 9 -6 -6 5 -14 4 -17 -5 -12 -6 4 -10 4 -9 -1 2 -4 -1
-9 -5 -10 -4 -1 -33 -25 -64 -52 -31 -28 -59 -48 -63 -46 -4 3 -19 -6 -34 -20
-14 -13 -26 -21 -26 -17 0 4 -4 2 -8 -3 -4 -6 -26 -19 -49 -29 -24 -11 -43
-24 -43 -29 0 -6 -3 -8 -6 -4 -4 3 -23 -2 -44 -13 -64 -33 -271 -97 -380 -119
-185 -36 -271 -44 -475 -44 -436 1 -837 104 -1078 277 -124 89 -258 246 -307
361 -11 25 -21 45 -24 45 -2 0 -18 -28 -34 -63z m2705 -292 c0 -8 -4 -12 -9
-9 -5 3 -6 10 -3 15 9 13 12 11 12 -6z m268 -275 c3 -5 -1 -10 -10 -10 -9 0
-13 5 -10 10 3 6 8 10 10 10 2 0 7 -4 10 -10z m-24 -43 c-10 -9 -11 -8 -5 6 3
10 9 15 12 12 3 -3 0 -11 -7 -18z m39 14 c0 -6 -4 -13 -10 -16 -5 -3 -10 1
-10 9 0 9 5 16 10 16 6 0 10 -4 10 -9z"/>
<path d="M5061 4496 c-9 -11 -9 -16 1 -22 7 -4 10 -4 6 1 -4 4 -3 14 3 22 6 7
9 13 6 13 -2 0 -10 -6 -16 -14z"/>
<path d="M5250 4140 c0 -5 5 -10 10 -10 6 0 10 5 10 10 0 6 -4 10 -10 10 -5 0
-10 -4 -10 -10z"/>
<path d="M5250 4080 c0 -5 5 -10 10 -10 6 0 10 5 10 10 0 6 -4 10 -10 10 -5 0
-10 -4 -10 -10z"/>
<path d="M3259 3471 c-41 -42 -40 -86 6 -141 19 -23 39 -60 45 -83 61 -253
349 -393 582 -284 121 56 187 132 232 265 14 41 39 90 57 109 27 32 30 41 26
77 -16 116 -178 116 -194 0 -4 -33 -1 -45 21 -71 15 -18 26 -43 26 -59 0 -79
-95 -201 -193 -248 -173 -85 -389 -1 -468 182 -25 58 -24 84 6 116 59 64 13
166 -75 166 -33 0 -48 -6 -71 -29z"/>
<path d="M5356 3057 c-16 -45 -57 -138 -92 -205 l-64 -124 0 -419 0 -420
-1172 4 c-1071 3 -1178 4 -1229 20 -331 101 -539 376 -539 714 0 71 -2 80 -49
162 -39 70 -102 202 -134 281 -4 8 -5 -129 -3 -305 2 -315 3 -321 29 -408 95
-309 312 -527 624 -624 l88 -28 1288 -3 1287 -2 0 720 c0 396 -1 720 -2 720
-2 0 -16 -37 -32 -83z"/>
</g>
</svg>
